<svg width="17" height="17" viewBox="0 0 17 17" fill="none" xmlns="http://www.w3.org/2000/svg">
<path d="M17 2.68421V4.47368H14.3158V7.15789H12.5263V4.47368H9.8421V2.68421H12.5263V0H14.3158V2.68421H17ZM9.39474 8.94737C9.7508 8.94725 10.0922 8.80569 10.3439 8.55383C10.5956 8.30197 10.737 7.96043 10.7368 7.60437C10.7367 7.2483 10.5952 6.90686 10.3433 6.65517C10.0914 6.40348 9.74991 6.26214 9.39384 6.26226C9.21754 6.26232 9.04297 6.29711 8.8801 6.36463C8.71724 6.43215 8.56927 6.5311 8.44464 6.6558C8.32002 6.78051 8.22118 6.92855 8.15376 7.09146C8.08635 7.25436 8.05168 7.42896 8.05174 7.60526C8.0518 7.78157 8.08658 7.95614 8.1541 8.119C8.22163 8.28187 8.32057 8.42983 8.44528 8.55446C8.56999 8.67909 8.71802 8.77793 8.88093 8.84534C9.04384 8.91276 9.21843 8.94743 9.39474 8.94737ZM12.5263 11.8409L12.0673 11.3309C11.8995 11.1441 11.6942 10.9946 11.4648 10.8923C11.2355 10.79 10.9871 10.7372 10.7359 10.7372C10.4848 10.7372 10.2364 10.79 10.0071 10.8923C9.77768 10.9946 9.5724 11.1441 9.40458 11.3309L8.81763 11.985L4.47368 7.15789L1.78947 10.1401V4.47368H8.05263V2.68421H1.78947C1.31488 2.68421 0.859716 2.87274 0.524125 3.20834C0.188533 3.54393 0 3.99909 0 4.47368V15.2105C0 15.6851 0.188533 16.1403 0.524125 16.4759C0.859716 16.8115 1.31488 17 1.78947 17H12.5263C13.0009 17 13.4561 16.8115 13.7917 16.4759C14.1273 16.1403 14.3158 15.6851 14.3158 15.2105V8.94737H12.5263V11.8409Z" fill="white"/>
</svg>
