<svg width="16" height="10" viewBox="0 0 16 10" fill="none" xmlns="http://www.w3.org/2000/svg">
<path d="M7.55335 9.8166L0.188585 2.65444C0.0628624 2.53218 0 2.38739 0 2.22008C0 2.05277 0.0628624 1.90798 0.188585 1.78571L1.83623 0.183398C1.96195 0.0611326 2.11084 0 2.28288 0C2.45492 0 2.6038 0.0611326 2.72953 0.183398L8 5.30888L13.2705 0.183398C13.3962 0.0611326 13.5451 0 13.7171 0C13.8892 0 14.038 0.0611326 14.1638 0.183398L15.8114 1.78571C15.9371 1.90798 16 2.05277 16 2.22008C16 2.38739 15.9371 2.53218 15.8114 2.65444L8.44665 9.8166C8.32093 9.93887 8.17204 10 8 10C7.82796 10 7.67907 9.93887 7.55335 9.8166Z" fill="#ADADAD"/>
</svg>
