<svg width="12" height="14" viewBox="0 0 12 14" fill="none" xmlns="http://www.w3.org/2000/svg">
<path d="M0.292898 8.70709L5.2929 13.7071C5.6834 14.0976 6.31659 14.0976 6.70712 13.7071L11.7071 8.70709C12.0976 8.31656 12.0976 7.68341 11.7071 7.29288C11.3166 6.90234 10.6834 6.90234 10.2929 7.29288L6.99999 10.5858V1C6.99999 0.447719 6.55227 0 5.99999 0C5.44771 0 4.99999 0.447719 4.99999 1V10.5858L1.70709 7.29288C1.51184 7.09763 1.2559 7 0.999992 7C0.744086 7 0.488148 7.09763 0.292898 7.29288C-0.0976328 7.68341 -0.0976328 8.31656 0.292898 8.70709Z" fill="#B5B5B5"/>
</svg>
