<svg width="16" height="14" viewBox="0 0 16 14" fill="none" xmlns="http://www.w3.org/2000/svg">
<path d="M13.0625 0H2.9375C1.32187 0 0 1.32187 0 2.9375V14L3 11H13.0625C14.6781 11 16 9.67812 16 8.0625V2.9375C16 1.32187 14.6781 0 13.0625 0ZM14 8.0625C14 8.57069 13.5707 9 13.0625 9H2V2.9375C2 2.42931 2.42931 2 2.9375 2H13.0625C13.5707 2 14 2.42931 14 2.9375V8.0625ZM4 6C4 5.73478 4.10536 5.48043 4.29289 5.29289C4.48043 5.10536 4.73478 5 5 5C5.26522 5 5.51957 5.10536 5.70711 5.29289C5.89464 5.48043 6 5.73478 6 6C6 6.26522 5.89464 6.51957 5.70711 6.70711C5.51957 6.89464 5.26522 7 5 7C4.73478 7 4.48043 6.89464 4.29289 6.70711C4.10536 6.51957 4 6.26522 4 6ZM7 6C7 5.73478 7.10536 5.48043 7.29289 5.29289C7.48043 5.10536 7.73478 5 8 5C8.26522 5 8.51957 5.10536 8.70711 5.29289C8.89464 5.48043 9 5.73478 9 6C9 6.26522 8.89464 6.51957 8.70711 6.70711C8.61425 6.79997 8.50401 6.87362 8.38268 6.92388C8.26136 6.97413 8.13132 7 8 7C7.86868 7 7.73864 6.97413 7.61732 6.92388C7.49599 6.87362 7.38575 6.79997 7.29289 6.70711C7.20003 6.61425 7.12638 6.50401 7.07612 6.38268C7.02587 6.26136 7 6.13132 7 6ZM10 6C10 5.73478 10.1054 5.48043 10.2929 5.29289C10.4804 5.10536 10.7348 5 11 5C11.2652 5 11.5196 5.10536 11.7071 5.29289C11.8946 5.48043 12 5.73478 12 6C12 6.26522 11.8946 6.51957 11.7071 6.70711C11.5196 6.89464 11.2652 7 11 7C10.7348 7 10.4804 6.89464 10.2929 6.70711C10.1054 6.51957 10 6.26522 10 6Z" fill="white"/>
</svg>
