<svg width="8" height="11" viewBox="0 0 8 11" fill="none" xmlns="http://www.w3.org/2000/svg">
<path d="M5.26435 8.59375V10.6562C5.26435 10.7479 5.22972 10.8281 5.16047 10.8969C5.09121 10.9656 5.01041 11 4.91807 11H2.84036C2.74802 11 2.66722 10.9656 2.59796 10.8969C2.5287 10.8281 2.49407 10.7479 2.49407 10.6562V8.59375C2.49407 8.50208 2.5287 8.42188 2.59796 8.35313C2.66722 8.28438 2.74802 8.25 2.84036 8.25H4.91807C5.01041 8.25 5.09121 8.28438 5.16047 8.35313C5.22972 8.42188 5.26435 8.50208 5.26435 8.59375ZM8 3.4375C8 3.74688 7.95527 4.0362 7.86581 4.30547C7.77636 4.57474 7.67536 4.79388 7.56282 4.96289C7.45027 5.1319 7.29156 5.30234 7.08667 5.47422C6.88179 5.64609 6.71586 5.7707 6.58889 5.84805C6.46192 5.92539 6.28589 6.02708 6.06081 6.15313C5.82418 6.2849 5.62651 6.47109 5.46779 6.71172C5.30908 6.95234 5.22972 7.14427 5.22972 7.2875C5.22972 7.3849 5.19509 7.47799 5.12584 7.5668C5.05658 7.6556 4.97578 7.7 4.88344 7.7H2.80573C2.71916 7.7 2.64557 7.64701 2.58497 7.54102C2.52437 7.43503 2.49407 7.3276 2.49407 7.21875V6.83203C2.49407 6.35651 2.68164 5.9082 3.05679 5.48711C3.43193 5.06602 3.84458 4.75521 4.29475 4.55469C4.63527 4.4 4.87767 4.23958 5.02195 4.07344C5.16624 3.90729 5.23838 3.68958 5.23838 3.42031C5.23838 3.17969 5.10419 2.96771 4.83582 2.78437C4.56745 2.60104 4.25724 2.50938 3.90518 2.50938C3.53004 2.50938 3.21839 2.59245 2.97022 2.75859C2.76822 2.90182 2.45945 3.23125 2.0439 3.74688C1.96888 3.83854 1.87942 3.88438 1.77553 3.88438C1.70628 3.88438 1.63413 3.86146 1.55911 3.81563L0.139338 2.74141C0.06431 2.68411 0.0195816 2.6125 0.00515305 2.52656C-0.00927548 2.44062 0.0065959 2.36042 0.0527672 2.28594C0.976193 0.761979 2.31516 0 4.06967 0C4.53138 0 4.99598 0.0888021 5.46346 0.266406C5.93095 0.44401 6.35226 0.681771 6.7274 0.979688C7.10255 1.2776 7.40843 1.64284 7.64506 2.07539C7.88169 2.50794 8 2.96198 8 3.4375Z" fill="#B9B9B9"/>
</svg>
