<svg width="16" height="16" viewBox="0 0 16 16" fill="none" xmlns="http://www.w3.org/2000/svg">
<path d="M13.5 10.9966C12.7944 10.9966 12.1575 11.2893 11.7029 11.7593L4.9685 8.39313C4.98903 8.26423 5 8.13218 5 7.9975C5 7.86282 4.98903 7.73077 4.9685 7.60191L11.7029 4.23574C12.1575 4.70575 12.7944 4.99844 13.5 4.99844C14.8807 4.99844 16 3.87951 16 2.49922C16 1.11893 14.8807 0 13.5 0C12.1193 0 11 1.11893 11 2.49922C11 2.6339 11.011 2.76595 11.0315 2.89481L4.29706 6.26101C3.8425 5.791 3.20563 5.49828 2.5 5.49828C1.11928 5.49828 0 6.61724 0 7.9975C0 9.37782 1.11928 10.4967 2.5 10.4967C3.20563 10.4967 3.8425 10.204 4.29706 9.73402L11.0315 13.1002C11.011 13.2291 11 13.3611 11 13.4958C11 14.8761 12.1193 15.995 13.5 15.995C14.8807 15.995 16 14.8761 16 13.4958C16 12.1155 14.8807 10.9966 13.5 10.9966Z" fill="#636363"/>
</svg>
